# xmcd
#
# Track frame offsets: 
#        150
#        15485
#        29891
#        46777
#        66213
#        85694
#
# Disc length: 1458 seconds
#
# Revision: 0
# Processed by: cddbd v1.5.2PL0 Copyright (c) Steve Scherf et al.
# Submitted via: ExactAudioCopy v1.1
#
DISCID=4305b006
DTITLE=Liam Russell - No Contest EP
DYEAR=2018
DGENRE=Folk/Rock
TTITLE0=I Think About You
TTITLE1=Lafayette
TTITLE2=Half Chance
TTITLE3=Dreamer's Rock
TTITLE4=To Be A Man
TTITLE5=Rather Be
EXTD=
EXTT0=
EXTT1=
EXTT2=
EXTT3=
EXTT4=
EXTT5=
PLAYORDER=
